<?xml version="1.0" encoding="UTF-8" standalone="no"?>
<svg width="220px" height="55px" viewBox="0 0 220 55" version="1.1" xmlns="http://www.w3.org/2000/svg" xmlns:xlink="http://www.w3.org/1999/xlink" xmlns:sketch="http://www.bohemiancoding.com/sketch/ns">
    <title>uniflow-logo</title>
    <description>Created with Sketch (http://www.bohemiancoding.com/sketch)</description>
    <defs></defs>
    <g id="Page-1" stroke="none" stroke-width="1" fill="none" fill-rule="evenodd" sketch:type="MSPage">
        <g id="Group" sketch:type="MSLayerGroup" transform="translate(0.000000, -5.000000)">
            <text id="uniflow" fill="#818181" sketch:type="MSTextLayer" font-family="Cabin" font-size="48" font-weight="420" sketch:alignment="middle" line-spacing="60">
                <tspan x="68.5" y="46" fill="#4A4A4A">uniflow</tspan>
            </text>
            <path d="M5,41.0057262 C5,48.7345502 11.2692748,55 18.9942738,55 L28,55 L28,47 L20.9929714,47 C16.5743339,47 13,43.4214248 13,39.0070286 L13,19.9929714 L5,20 L5,41.0057262 Z M13,20 L13,27 L18,27 L13,20 Z M0,27 L5,27 L5,20 L0,27 Z" id="Rectangle-5" fill="#F6A623" sketch:type="MSShapeGroup"></path>
            <path d="M18.9942738,5 L41.0057262,5 C47.7035036,5 53.3069626,9.70995551 54.6787578,16 L45.2503574,16 C43.7863201,14.1711713 41.5348333,13 39.0070286,13 L20.9929714,13 C18.4667728,13 16.2142936,14.1705433 14.7495484,16 L5.32131642,16 C6.69283652,9.71225776 12.2935875,5 18.9942738,5 Z" id="Path" fill="#D8D8D8" sketch:type="MSShapeGroup"></path>
            <path d="M55,41.0057262 C55,48.7307252 48.7345502,55 41.0057262,55 L32,55 L32,47 L39.0070286,47 C43.4214248,47 47,43.4256661 47,39.0070286 L47,20.9929714 C47,20.6567276 46.9792623,20.3253331 46.9389933,20 L55,20 L55,41.0057262 Z M32,47 L37.3409424,47 L40,47 L39,47 L39,42.0401001 L32,47 Z M32,55 L39,60 L39,55 L32,55 Z" id="Path" fill="#F6A623" sketch:type="MSShapeGroup"></path>
        </g>
    </g>
</svg>